<?xml version="1.0" standalone="no"?><!DOCTYPE svg PUBLIC "-//W3C//DTD SVG 1.1//EN" "http://www.w3.org/Graphics/SVG/1.1/DTD/svg11.dtd"><svg t="1584489590024" class="icon" viewBox="0 0 1024 1024" version="1.1" xmlns="http://www.w3.org/2000/svg" p-id="1677" xmlns:xlink="http://www.w3.org/1999/xlink" width="32" height="32"><defs><style type="text/css"></style></defs><path d="M925.7 337.7c-22.6-53.5-55-101.5-96.2-142.7-41.2-41.2-89.2-73.6-142.7-96.2C631.4 75.4 572.6 63.5 512 63.5S392.6 75.4 337.2 98.8c-53.5 22.6-101.5 55-142.7 96.2-41.2 41.2-73.6 89.2-96.2 142.7C74.9 393.1 63 451.9 63 512.5s11.9 119.4 35.3 174.8c22.6 53.5 55 101.5 96.2 142.7 41.2 41.2 89.2 73.6 142.7 96.2 55.4 23.4 114.2 35.3 174.8 35.3s119.4-11.9 174.8-35.3c53.5-22.6 101.5-55 142.7-96.2s73.6-89.2 96.2-142.7c23.4-55.4 35.3-114.2 35.3-174.8s-11.9-119.4-35.3-174.8zM512 911.5c-220 0-399-179-399-399s179-399 399-399 399 179 399 399-179 399-399 399z" fill="#ffffff" p-id="1678"></path><path d="M700.7 323.3c-9.8-9.8-25.6-9.8-35.4 0L512 476.6 358.7 323.3c-9.8-9.8-25.6-9.8-35.4 0-9.8 9.8-9.8 25.6 0 35.4L476.6 512 323.3 665.3c-9.8 9.8-9.8 25.6 0 35.4 4.9 4.9 11.3 7.3 17.7 7.3s12.8-2.4 17.7-7.3L512 547.4l153.3 153.3c4.9 4.9 11.3 7.3 17.7 7.3s12.8-2.4 17.7-7.3c9.8-9.8 9.8-25.6 0-35.4L547.4 512l153.3-153.3c9.7-9.8 9.7-25.6 0-35.4z" fill="#ffffff" p-id="1679"></path></svg>